<?xml version="1.0" encoding="utf-8"?>
<!-- Generator: Adobe Illustrator 16.0.0, SVG Export Plug-In . SVG Version: 6.00 Build 0)  -->
<!DOCTYPE svg PUBLIC "-//W3C//DTD SVG 1.1//EN" "http://www.w3.org/Graphics/SVG/1.1/DTD/svg11.dtd">
<svg version="1.1" id="Layer_1" xmlns="http://www.w3.org/2000/svg" xmlns:xlink="http://www.w3.org/1999/xlink" x="0px" y="0px"
	 width="121.046px" height="121.046px" viewBox="0 0 121.046 121.046" enable-background="new 0 0 121.046 121.046"
	 xml:space="preserve">
<g>
	<path fill="#4E4E4E" d="M121.046,113.929c0,3.914-3.202,7.117-7.117,7.117H7.117c-3.915,0-7.117-3.203-7.117-7.117V7.116
		C0,3.202,3.202,0,7.117,0h106.812c3.915,0,7.117,3.202,7.117,7.116V113.929z"/>
	<path id="Facebook_4_" d="M53.287,43.131c0,1.633,0,8.922,0,8.922h-6.438v10.911h6.438v29.942h13.226V62.964h8.875
		c0,0,0.832-5.23,1.234-10.951c-1.154,0-10.059,0-10.059,0s0-6.347,0-7.458c0-1.115,1.445-2.614,2.867-2.614
		c1.424,0,4.428,0,7.207,0c0-1.486,0-6.617,0-11.362c-3.713,0-7.938,0-9.799,0C52.959,30.579,53.287,41.502,53.287,43.131z"/>
	<path id="Facebook_2_" fill="#FFFFFF" d="M52.067,41.911c0,1.632,0,8.922,0,8.922h-6.439v10.911h6.439v29.942h13.225V61.745h8.876
		c0,0,0.831-5.231,1.234-10.952c-1.155,0-10.06,0-10.06,0s0-6.347,0-7.458c0-1.115,1.445-2.614,2.867-2.614c1.426,0,4.429,0,7.208,0
		c0-1.486,0-6.617,0-11.362c-3.713,0-7.938,0-9.8,0C51.739,29.359,52.067,40.282,52.067,41.911z"/>
</g>
</svg>
