<?xml version="1.0" encoding="utf-8"?>
<!-- Generator: Adobe Illustrator 16.0.0, SVG Export Plug-In . SVG Version: 6.00 Build 0)  -->
<!DOCTYPE svg PUBLIC "-//W3C//DTD SVG 1.1//EN" "http://www.w3.org/Graphics/SVG/1.1/DTD/svg11.dtd">
<svg version="1.1" id="Layer_1" xmlns="http://www.w3.org/2000/svg" xmlns:xlink="http://www.w3.org/1999/xlink" x="0px" y="0px"
	 width="121.046px" height="121.046px" viewBox="0 0 121.046 121.046" enable-background="new 0 0 121.046 121.046"
	 xml:space="preserve">
<path fill="#4E4E4E" d="M121.046,113.929c0,3.914-3.202,7.117-7.117,7.117H7.117c-3.915,0-7.117-3.203-7.117-7.117V7.116
	C0,3.202,3.202,0,7.117,0h106.812c3.915,0,7.117,3.202,7.117,7.116V113.929z"/>
<g>
	<path fill="#FFFFFF" d="M89.257,44.677c-2.968-5.084-6.993-9.11-12.077-12.077c-5.085-2.967-10.636-4.451-16.658-4.451
		c-6.021,0-11.573,1.483-16.658,4.451s-9.11,6.993-12.077,12.077c-2.967,5.084-4.451,10.637-4.451,16.657
		c0,7.23,2.11,13.733,6.331,19.509c4.22,5.776,9.671,9.773,16.354,11.991c0.778,0.144,1.354,0.043,1.729-0.302
		c0.375-0.346,0.562-0.778,0.562-1.296c0-0.087-0.007-0.864-0.022-2.334c-0.015-1.469-0.021-2.752-0.021-3.845l-0.994,0.172
		c-0.633,0.116-1.433,0.165-2.398,0.151c-0.964-0.013-1.966-0.115-3.003-0.303c-1.037-0.186-2.002-0.618-2.895-1.295
		c-0.893-0.678-1.526-1.563-1.901-2.657l-0.432-0.995c-0.288-0.661-0.741-1.397-1.361-2.203c-0.62-0.807-1.246-1.354-1.879-1.642
		l-0.303-0.216c-0.202-0.146-0.389-0.318-0.562-0.52c-0.173-0.202-0.302-0.403-0.389-0.605c-0.086-0.201-0.015-0.368,0.216-0.497
		c0.23-0.13,0.648-0.193,1.253-0.193l0.864,0.13c0.576,0.114,1.289,0.459,2.139,1.036c0.85,0.576,1.548,1.325,2.096,2.246
		c0.663,1.181,1.462,2.082,2.398,2.701c0.936,0.619,1.879,0.929,2.83,0.929c0.95,0,1.771-0.072,2.463-0.216
		c0.691-0.144,1.339-0.36,1.944-0.647c0.259-1.932,0.965-3.414,2.117-4.451c-1.642-0.173-3.118-0.433-4.429-0.778
		c-1.31-0.346-2.664-0.907-4.061-1.687c-1.398-0.776-2.558-1.743-3.479-2.894c-0.921-1.153-1.678-2.666-2.269-4.539
		c-0.59-1.871-0.885-4.032-0.885-6.48c0-3.486,1.138-6.453,3.414-8.901c-1.066-2.621-0.966-5.559,0.302-8.814
		c0.835-0.259,2.075-0.065,3.716,0.583c1.642,0.648,2.844,1.203,3.608,1.664c0.764,0.461,1.375,0.851,1.837,1.167
		c2.679-0.749,5.444-1.123,8.296-1.123s5.617,0.375,8.297,1.123l1.642-1.037c1.122-0.691,2.449-1.325,3.975-1.901
		c1.527-0.576,2.694-0.734,3.502-0.475c1.295,3.256,1.411,6.193,0.344,8.815c2.276,2.449,3.416,5.416,3.416,8.901
		c0,2.45-0.298,4.616-0.887,6.502c-0.59,1.888-1.354,3.399-2.29,4.538c-0.937,1.138-2.104,2.096-3.5,2.873
		c-1.397,0.777-2.752,1.34-4.062,1.685c-1.311,0.347-2.787,0.606-4.429,0.779c1.497,1.296,2.246,3.342,2.246,6.136v9.116
		c0,0.519,0.181,0.951,0.541,1.296c0.359,0.345,0.929,0.446,1.706,0.302c6.684-2.217,12.136-6.214,16.356-11.99
		c4.219-5.775,6.33-12.278,6.33-19.51C93.707,55.314,92.223,49.762,89.257,44.677z"/>
</g>
</svg>
