
<svg width="491px" height="611px" viewBox="-41 -41 491 611" version="1.1" xmlns="http://www.w3.org/2000/svg" xmlns:xlink="http://www.w3.org/1999/xlink">
    <!-- Generator: Sketch 3.7.2 (28276) - http://www.bohemiancoding.com/sketch -->
    <desc>Created with Sketch.</desc>
    <defs>
        <path d="M296.381995,110.116225 L408.763991,175 L408.763991,411 L204.381995,529 L1.20792265e-13,411 L-1.0658141e-14,175 L113.381995,109.538874 L113.381995,0 L296.381995,0 L296.381995,110.116225 Z" id="path-1"></path>
        <filter x="-50%" y="-50%" width="200%" height="200%" filterUnits="objectBoundingBox" id="filter-2">
            <feMorphology radius="0.5" operator="dilate" in="SourceAlpha" result="shadowSpreadOuter1"></feMorphology>
            <feOffset dx="0" dy="0" in="shadowSpreadOuter1" result="shadowOffsetOuter1"></feOffset>
            <feGaussianBlur stdDeviation="20" in="shadowOffsetOuter1" result="shadowBlurOuter1"></feGaussianBlur>
            <feComposite in="shadowBlurOuter1" in2="SourceAlpha" operator="out" result="shadowBlurOuter1"></feComposite>
            <feColorMatrix values="0 0 0 0 0   0 0 0 0 0   0 0 0 0 0  0 0 0 0.5 0" type="matrix" in="shadowBlurOuter1"></feColorMatrix>
        </filter>
    </defs>
    <g id="Group-3" stroke="none" stroke-width="1" fill="none" fill-rule="evenodd">
        <g id="Polygon-1">
            <use fill="black" fill-opacity="1" filter="url(#filter-2)" xlink:href="#path-1"></use>
            <use stroke="#9B9B9B" stroke-width="1" fill="#FFFFFF" fill-rule="evenodd" xlink:href="#path-1"></use>
        </g>
        <path d="M93.5343346,234.767187 L93.7874596,234.767187 L100.410897,195.574998 L112.054648,195.574998 L100.19996,257 L89.020272,257 L80.3718341,219.368749 L80.1187091,219.368749 L71.5546463,257 L60.4171458,257 L48.5624579,195.574998 L60.2062083,195.574998 L66.8296461,234.767187 L67.0827711,234.767187 L75.9421464,195.574998 L84.5483968,195.574998 L93.5343346,234.767187 Z M150.276524,230.042186 L129.646836,230.042186 L129.646836,247.423437 L153.90465,247.423437 L153.90465,257 L117.623398,257 L117.623398,195.574998 L153.820275,195.574998 L153.820275,205.193748 L129.646836,205.193748 L129.646836,220.465624 L150.276524,220.465624 L150.276524,230.042186 Z M160.1484,257 L160.1484,195.574998 L178.246838,195.574998 C184.574995,195.574998 189.517914,196.981234 193.075745,199.793748 C196.633575,202.606262 198.412464,206.796845 198.412464,212.365623 C198.412464,215.290638 197.765595,217.885143 196.471839,220.149217 C195.178082,222.413291 193.237477,224.107806 190.649963,225.232811 C193.884355,225.99219 196.274956,227.637486 197.821839,230.168749 C199.368722,232.700012 200.142151,235.66717 200.142151,239.070312 C200.142151,244.948466 198.461699,249.406235 195.100745,252.44375 C191.73979,255.481265 186.923432,257 180.651526,257 L160.1484,257 Z M172.171838,229.915624 L172.171838,247.423437 L180.651526,247.423437 C183.182788,247.423437 185.074176,246.720319 186.325745,245.314062 C187.577313,243.907805 188.203088,241.812513 188.203088,239.028124 C188.203088,236.10311 187.668719,233.853132 186.599963,232.278124 C185.531208,230.703116 183.8156,229.915624 181.453088,229.915624 L172.171838,229.915624 Z M172.171838,221.520311 L178.795276,221.520311 C181.242163,221.464061 183.119488,220.753912 184.427307,219.389842 C185.735126,218.025773 186.389026,216.064074 186.389026,213.504686 C186.389026,210.635921 185.714033,208.533599 184.364026,207.197654 C183.014019,205.86171 180.974977,205.193748 178.246838,205.193748 L172.171838,205.193748 L172.171838,221.520311 Z M227.01559,257 L227.01559,195.574998 L245.578091,195.574998 C251.878122,195.574998 257.081196,197.958568 261.187466,202.725779 C265.293737,207.492991 267.346842,213.631211 267.346842,221.140624 L267.346842,231.476561 C267.346842,238.985974 265.293737,245.117163 261.187466,249.870312 C257.081196,254.623461 251.878122,257 245.578091,257 L227.01559,257 Z M239.039028,205.193748 L239.039028,247.423437 L244.903091,247.423437 C248.249983,247.423437 250.830426,245.967983 252.644497,243.057031 C254.458569,240.146079 255.365591,236.285961 255.365591,231.476561 L255.365591,221.056249 C255.365591,216.274974 254.458569,212.43595 252.644497,209.539061 C250.830426,206.642171 248.249983,205.193748 244.903091,205.193748 L239.039028,205.193748 Z M308.226531,230.042186 L287.596842,230.042186 L287.596842,247.423437 L311.854656,247.423437 L311.854656,257 L275.573404,257 L275.573404,195.574998 L311.770281,195.574998 L311.770281,205.193748 L287.596842,205.193748 L287.596842,220.465624 L308.226531,220.465624 L308.226531,230.042186 Z M336.618719,241.306249 L337.082782,243.668749 L337.335907,243.668749 L337.799969,241.432812 L348.051532,195.574998 L360.665595,195.574998 L343.495282,257 L331.007782,257 L313.837468,195.574998 L326.451531,195.574998 L336.618719,241.306249 Z" id="WEB-DEV" fill="#52BDF7"></path>
        <path d="M105.814609,312.960936 C105.814609,313.117187 105.804843,313.297849 105.785312,313.502928 C105.76578,313.708007 105.731601,313.922849 105.682773,314.14746 C105.633944,314.37207 105.575351,314.606443 105.506991,314.850585 C105.438632,315.094726 105.355625,315.309568 105.257968,315.495116 C105.160311,315.680664 105.048008,315.832029 104.921054,315.949217 C104.7941,316.066406 104.6525,316.124999 104.496249,316.124999 C104.281404,316.124999 103.983556,315.998047 103.602694,315.744139 C103.221833,315.490232 102.733557,315.22168 102.137851,314.938475 C101.542144,314.655271 100.834144,314.386719 100.013827,314.132811 C99.1935104,313.878904 98.2462542,313.751952 97.1720301,313.751952 C95.9806178,313.751952 94.9357064,313.932614 94.0372643,314.293944 C93.1388223,314.655274 92.3868767,315.14355 91.7814049,315.758788 C91.1759331,316.374025 90.721836,317.07226 90.4191001,317.853514 C90.1163642,318.634768 89.9649985,319.445307 89.9649985,320.285155 C89.9649985,321.144534 90.1554263,321.89648 90.5362876,322.541015 C90.9171489,323.185549 91.4151908,323.771481 92.0304283,324.298827 C92.6456658,324.826174 93.3487838,325.324216 94.1398034,325.792968 C94.930823,326.26172 95.736479,326.740231 96.5567957,327.228515 C97.3771123,327.716799 98.1876511,328.239254 98.9884364,328.795898 C99.7892217,329.352541 100.497222,329.997066 101.11246,330.729492 C101.727697,331.461917 102.225739,332.301752 102.606601,333.249023 C102.987462,334.196293 103.17789,335.294915 103.17789,336.544921 C103.17789,338.205086 102.836096,339.762688 102.152499,341.217773 C101.468902,342.672859 100.497232,343.942377 99.2374598,345.026367 C97.9776879,346.110357 96.4591483,346.969723 94.6817956,347.604492 C92.9044429,348.239261 90.9220408,348.556641 88.7345297,348.556641 C87.5431175,348.556641 86.4347301,348.454103 85.4093343,348.249023 C84.3839385,348.043944 83.4610961,347.790041 82.6407795,347.487305 C81.8204629,347.184569 81.1271104,346.872072 80.5607013,346.549805 C79.9942922,346.227537 79.58414,345.939454 79.3302325,345.685547 C79.076325,345.431639 78.9493731,345.060549 78.9493731,344.572265 C78.9493731,344.455077 78.9640214,344.289063 78.9933184,344.074219 C79.0226154,343.859374 79.0665603,343.625001 79.1251544,343.371094 C79.1837484,343.117186 79.2472243,342.868165 79.3155841,342.624023 C79.3839438,342.379881 79.4718335,342.155274 79.5792559,341.950195 C79.6866784,341.745116 79.8038647,341.579102 79.9308185,341.452148 C80.0577722,341.325194 80.2091379,341.261718 80.38492,341.261718 C80.6974216,341.261718 81.0880427,341.417967 81.5567951,341.730469 C82.0255474,342.04297 82.6065963,342.379881 83.2999592,342.741211 C83.9933221,343.102541 84.8185092,343.439451 85.7755452,343.751953 C86.7325813,344.064455 87.855617,344.220703 89.144686,344.220703 C90.5118804,344.220703 91.7325714,344.030275 92.8067955,343.649414 C93.8810197,343.268553 94.784331,342.75098 95.5167566,342.096679 C96.2491821,341.442379 96.8107,340.675785 97.201327,339.796875 C97.5919539,338.917964 97.7872645,337.980473 97.7872645,336.984375 C97.7872645,336.105464 97.6017194,335.33887 97.2306238,334.68457 C96.8595282,334.03027 96.3712518,333.439455 95.76578,332.912109 C95.1603082,332.384762 94.462073,331.896486 93.6710534,331.447265 C92.8800338,330.998044 92.0792605,330.529299 91.2687095,330.041015 C90.4581586,329.552731 89.6622681,329.030275 88.8810141,328.473632 C88.0997602,327.916989 87.4064077,327.272464 86.8009359,326.540038 C86.1954641,325.807613 85.702305,324.967777 85.3214437,324.020507 C84.9405824,323.073236 84.7501546,321.964849 84.7501546,320.695311 C84.7501546,319.152335 85.0528859,317.707037 85.6583577,316.359374 C86.2638295,315.011711 87.123196,313.830082 88.2364828,312.814452 C89.3497697,311.798822 90.6974125,310.998048 92.2794518,310.412108 C93.861491,309.826167 95.6290515,309.533202 97.5821863,309.533202 C98.5196911,309.533202 99.4132369,309.611326 100.262851,309.767577 C101.112464,309.923827 101.879058,310.114255 102.562655,310.338866 C103.246252,310.563476 103.832184,310.807614 104.320468,311.071288 C104.808752,311.334961 105.14078,311.554685 105.316562,311.730467 C105.492344,311.906249 105.619296,312.086912 105.697421,312.27246 C105.775546,312.458007 105.814609,312.687497 105.814609,312.960936 L105.814609,312.960936 Z M136.693516,346.212891 C136.75211,346.64258 136.766758,346.989256 136.737461,347.25293 C136.708164,347.516603 136.600744,347.716796 136.415196,347.853516 C136.229648,347.990235 135.941565,348.078125 135.550938,348.117188 C135.160311,348.15625 134.632972,348.175781 133.968907,348.175781 C133.539217,348.175781 133.168127,348.161133 132.855625,348.131836 C132.543124,348.102539 132.303868,348.053711 132.137852,347.985352 C131.971835,347.916992 131.849766,347.824219 131.771641,347.707031 C131.693515,347.589843 131.644688,347.44336 131.625156,347.267578 L130.218906,338.039062 L114.42789,338.039062 L109.476718,347.179687 C109.379061,347.375001 109.266758,347.536132 109.139804,347.663086 C109.01285,347.79004 108.837071,347.892578 108.61246,347.970703 C108.38785,348.048829 108.094884,348.102539 107.733554,348.131836 C107.372224,348.161133 106.927892,348.175781 106.400546,348.175781 C105.814606,348.175781 105.34586,348.151367 104.994296,348.102539 C104.642732,348.053711 104.398594,347.960938 104.261874,347.824219 C104.125155,347.687499 104.086093,347.487306 104.144687,347.223633 C104.203281,346.95996 104.339998,346.613283 104.554843,346.183594 L124.300937,310.968749 C124.437657,310.753904 124.58414,310.578124 124.740391,310.441405 C124.896641,310.304685 125.101717,310.197265 125.355625,310.119139 C125.609532,310.041014 125.931795,309.987303 126.322422,309.958006 C126.713049,309.928709 127.19156,309.914061 127.757969,309.914061 C128.402503,309.914061 128.924959,309.928709 129.325352,309.958006 C129.725744,309.987303 130.048007,310.041014 130.292149,310.119139 C130.53629,310.197265 130.707187,310.309568 130.804844,310.456053 C130.902501,310.602538 130.970859,310.783201 131.009922,310.998045 L136.693516,346.212891 Z M126.820469,315.128905 L126.791172,315.128905 L116.537265,334.02539 L129.662266,334.02539 L126.820469,315.128905 Z M172.172033,334.201171 C171.703281,336.583996 170.961101,338.673819 169.94547,340.470703 C168.92984,342.267587 167.689618,343.761713 166.224767,344.953125 C164.759916,346.144537 163.109542,347.042966 161.273595,347.648437 C159.437648,348.253909 157.445481,348.556641 155.297032,348.556641 C153.031396,348.556641 151.063642,348.249027 149.393712,347.633789 C147.723782,347.018552 146.385904,346.100592 145.38004,344.879883 C144.374175,343.659173 143.715002,342.140634 143.402501,340.324218 C143.089999,338.507803 143.177889,336.398449 143.666173,333.996093 L148.295079,310.851561 C148.31461,310.69531 148.378086,310.558593 148.485509,310.441405 C148.592931,310.324217 148.754062,310.231444 148.968907,310.163084 C149.183752,310.094725 149.452304,310.036132 149.774571,309.987303 C150.096838,309.938475 150.502108,309.914061 150.990392,309.914061 C151.478675,309.914061 151.879062,309.938475 152.191564,309.987303 C152.504065,310.036132 152.753086,310.094725 152.938634,310.163084 C153.124182,310.231444 153.241368,310.324217 153.290196,310.441405 C153.339025,310.558593 153.343908,310.69531 153.304845,310.851561 L148.705235,333.937499 C148.373202,335.656258 148.28043,337.160149 148.426915,338.449218 C148.5734,339.738287 148.949373,340.812495 149.554845,341.671875 C150.160316,342.531254 150.995269,343.175779 152.059728,343.605469 C153.124186,344.035158 154.398587,344.25 155.88297,344.25 C157.347821,344.25 158.700347,344.025393 159.940587,343.576172 C161.180828,343.126951 162.284333,342.467778 163.251134,341.598633 C164.217936,340.729488 165.03824,339.65528 165.712072,338.375976 C166.385903,337.096673 166.888828,335.636726 167.220861,333.996093 L171.849767,310.851561 C171.869299,310.69531 171.932775,310.558593 172.040197,310.441405 C172.14762,310.324217 172.303868,310.231444 172.508947,310.163084 C172.714026,310.094725 172.977696,310.036132 173.299963,309.987303 C173.62223,309.938475 174.027499,309.914061 174.515783,309.914061 C174.984536,309.914061 175.375157,309.938475 175.687658,309.987303 C176.00016,310.036132 176.249181,310.094725 176.434729,310.163084 C176.620276,310.231444 176.742345,310.324217 176.800939,310.441405 C176.859534,310.558593 176.879065,310.69531 176.859533,310.851561 L172.172033,334.201171 Z M204.105628,312.960936 C204.105628,313.117187 204.095863,313.297849 204.076331,313.502928 C204.0568,313.708007 204.022621,313.922849 203.973792,314.14746 C203.924964,314.37207 203.866371,314.606443 203.798011,314.850585 C203.729651,315.094726 203.646644,315.309568 203.548987,315.495116 C203.451331,315.680664 203.339027,315.832029 203.212073,315.949217 C203.08512,316.066406 202.943519,316.124999 202.787269,316.124999 C202.572424,316.124999 202.274575,315.998047 201.893714,315.744139 C201.512853,315.490232 201.024576,315.22168 200.42887,314.938475 C199.833164,314.655271 199.125163,314.386719 198.304847,314.132811 C197.48453,313.878904 196.537274,313.751952 195.46305,313.751952 C194.271637,313.751952 193.226726,313.932614 192.328284,314.293944 C191.429842,314.655274 190.677896,315.14355 190.072424,315.758788 C189.466953,316.374025 189.012856,317.07226 188.71012,317.853514 C188.407384,318.634768 188.256018,319.445307 188.256018,320.285155 C188.256018,321.144534 188.446446,321.89648 188.827307,322.541015 C189.208168,323.185549 189.70621,323.771481 190.321448,324.298827 C190.936685,324.826174 191.639803,325.324216 192.430823,325.792968 C193.221843,326.26172 194.027499,326.740231 194.847815,327.228515 C195.668132,327.716799 196.478671,328.239254 197.279456,328.795898 C198.080241,329.352541 198.788242,329.997066 199.403479,330.729492 C200.018717,331.461917 200.516759,332.301752 200.89762,333.249023 C201.278481,334.196293 201.468909,335.294915 201.468909,336.544921 C201.468909,338.205086 201.127116,339.762688 200.443519,341.217773 C199.759921,342.672859 198.788251,343.942377 197.528479,345.026367 C196.268707,346.110357 194.750168,346.969723 192.972815,347.604492 C191.195462,348.239261 189.21306,348.556641 187.025549,348.556641 C185.834137,348.556641 184.72575,348.454103 183.700354,348.249023 C182.674958,348.043944 181.752116,347.790041 180.931799,347.487305 C180.111482,347.184569 179.41813,346.872072 178.851721,346.549805 C178.285312,346.227537 177.87516,345.939454 177.621252,345.685547 C177.367344,345.431639 177.240393,345.060549 177.240393,344.572265 C177.240393,344.455077 177.255041,344.289063 177.284338,344.074219 C177.313635,343.859374 177.35758,343.625001 177.416174,343.371094 C177.474768,343.117186 177.538244,342.868165 177.606604,342.624023 C177.674963,342.379881 177.762853,342.155274 177.870275,341.950195 C177.977698,341.745116 178.094884,341.579102 178.221838,341.452148 C178.348792,341.325194 178.500157,341.261718 178.67594,341.261718 C178.988441,341.261718 179.379062,341.417967 179.847815,341.730469 C180.316567,342.04297 180.897616,342.379881 181.590979,342.741211 C182.284342,343.102541 183.109529,343.439451 184.066565,343.751953 C185.023601,344.064455 186.146637,344.220703 187.435706,344.220703 C188.8029,344.220703 190.023591,344.030275 191.097815,343.649414 C192.172039,343.268553 193.075351,342.75098 193.807776,342.096679 C194.540202,341.442379 195.10172,340.675785 195.492346,339.796875 C195.882973,338.917964 196.078284,337.980473 196.078284,336.984375 C196.078284,336.105464 195.892739,335.33887 195.521643,334.68457 C195.150548,334.03027 194.662271,333.439455 194.0568,332.912109 C193.451328,332.384762 192.753093,331.896486 191.962073,331.447265 C191.171053,330.998044 190.37028,330.529299 189.559729,330.041015 C188.749178,329.552731 187.953288,329.030275 187.172034,328.473632 C186.39078,327.916989 185.697427,327.272464 185.091955,326.540038 C184.486484,325.807613 183.993324,324.967777 183.612463,324.020507 C183.231602,323.073236 183.041174,321.964849 183.041174,320.695311 C183.041174,319.152335 183.343905,317.707037 183.949377,316.359374 C184.554849,315.011711 185.414216,313.830082 186.527502,312.814452 C187.640789,311.798822 188.988432,310.998048 190.570471,310.412108 C192.152511,309.826167 193.920071,309.533202 195.873206,309.533202 C196.810711,309.533202 197.704256,309.611326 198.55387,309.767577 C199.403484,309.923827 200.170078,310.114255 200.853675,310.338866 C201.537272,310.563476 202.123204,310.807614 202.611487,311.071288 C203.099771,311.334961 203.431799,311.554685 203.607581,311.730467 C203.783363,311.906249 203.910315,312.086912 203.988441,312.27246 C204.066566,312.458007 204.105628,312.687497 204.105628,312.960936 L204.105628,312.960936 Z M234.984536,346.212891 C235.04313,346.64258 235.057778,346.989256 235.028481,347.25293 C234.999184,347.516603 234.891763,347.716796 234.706215,347.853516 C234.520667,347.990235 234.232584,348.078125 233.841957,348.117188 C233.45133,348.15625 232.923992,348.175781 232.259926,348.175781 C231.830236,348.175781 231.459146,348.161133 231.146645,348.131836 C230.834143,348.102539 230.594888,348.053711 230.428871,347.985352 C230.262855,347.916992 230.140786,347.824219 230.06266,347.707031 C229.984535,347.589843 229.935707,347.44336 229.916176,347.267578 L228.509926,338.039062 L212.71891,338.039062 L207.767738,347.179687 C207.670081,347.375001 207.557777,347.536132 207.430824,347.663086 C207.30387,347.79004 207.12809,347.892578 206.90348,347.970703 C206.678869,348.048829 206.385903,348.102539 206.024573,348.131836 C205.663244,348.161133 205.218912,348.175781 204.691566,348.175781 C204.105625,348.175781 203.63688,348.151367 203.285316,348.102539 C202.933751,348.053711 202.689613,347.960938 202.552894,347.824219 C202.416174,347.687499 202.377112,347.487306 202.435706,347.223633 C202.4943,346.95996 202.631018,346.613283 202.845862,346.183594 L222.591957,310.968749 C222.728676,310.753904 222.875159,310.578124 223.03141,310.441405 C223.187661,310.304685 223.392737,310.197265 223.646644,310.119139 C223.900552,310.041014 224.222814,309.987303 224.613441,309.958006 C225.004068,309.928709 225.482579,309.914061 226.048988,309.914061 C226.693523,309.914061 227.215979,309.928709 227.616371,309.958006 C228.016764,309.987303 228.339026,310.041014 228.583168,310.119139 C228.82731,310.197265 228.998207,310.309568 229.095863,310.456053 C229.19352,310.602538 229.261879,310.783201 229.300942,310.998045 L234.984536,346.212891 Z M225.111488,315.128905 L225.082191,315.128905 L214.828285,334.02539 L227.953285,334.02539 L225.111488,315.128905 Z M274.7111,314.220702 C274.7111,314.357421 274.696451,314.528318 274.667154,314.733397 C274.637857,314.938476 274.598795,315.153318 274.549967,315.377928 C274.501138,315.602539 274.437663,315.836912 274.359537,316.081053 C274.281412,316.325195 274.193522,316.540037 274.095865,316.725585 C273.998208,316.911133 273.890788,317.057615 273.7736,317.165038 C273.656412,317.27246 273.52946,317.326171 273.39274,317.326171 C273.09977,317.326171 272.704266,317.150391 272.206217,316.798827 C271.708167,316.447263 271.044111,316.051759 270.214029,315.612303 C269.383947,315.172848 268.373215,314.772461 267.181802,314.411131 C265.99039,314.049802 264.564623,313.869139 262.904459,313.869139 C261.166169,313.869139 259.540208,314.127926 258.026529,314.645506 C256.512849,315.163087 255.121261,315.875971 253.851724,316.784178 C252.582186,317.692386 251.449385,318.766594 250.453286,320.006835 C249.457187,321.247075 248.612469,322.594718 247.919106,324.049804 C247.225744,325.504889 246.698405,327.033194 246.337075,328.634765 C245.975745,330.236335 245.795083,331.857413 245.795083,333.498046 C245.795083,335.216805 246.044104,336.735345 246.542153,338.053711 C247.040203,339.372077 247.757969,340.480464 248.695474,341.378906 C249.632978,342.277348 250.76578,342.956052 252.093911,343.415039 C253.422043,343.874026 254.906403,344.103515 256.547036,344.103515 C257.75798,344.103515 259.022616,343.961915 260.340982,343.678711 C261.659348,343.395506 262.884922,342.96094 264.01774,342.375 L266.215006,331.388671 L257.45524,331.388671 C257.220863,331.388671 257.040201,331.305664 256.913247,331.139648 C256.786294,330.973631 256.722818,330.734376 256.722818,330.421874 C256.722818,330.285155 256.737466,330.104493 256.766763,329.879882 C256.79606,329.655272 256.835122,329.425782 256.88395,329.191406 C256.932779,328.957029 257.001138,328.722657 257.089029,328.48828 C257.17692,328.253904 257.279458,328.043945 257.396646,327.858398 C257.513834,327.67285 257.645669,327.526367 257.792154,327.418944 C257.938639,327.311522 258.09977,327.257812 258.275552,327.257812 L270.316568,327.257812 C270.863446,327.257812 271.25895,327.443357 271.503092,327.814452 C271.747234,328.185548 271.800944,328.68359 271.664225,329.308593 L268.734537,343.898437 C268.656411,344.269533 268.553873,344.567382 268.42692,344.791992 C268.299966,345.016603 268.158366,345.216796 268.002115,345.392578 C267.826333,345.56836 267.382001,345.827147 266.669107,346.168945 C265.956213,346.510744 265.057784,346.85742 263.973795,347.208984 C262.889805,347.560549 261.669114,347.868163 260.311685,348.131836 C258.954256,348.395509 257.533372,348.527344 256.04899,348.527344 C253.509914,348.527344 251.273608,348.200199 249.340005,347.545898 C247.406401,346.891598 245.785324,345.939459 244.476723,344.689453 C243.168123,343.439447 242.172039,341.92579 241.488442,340.148437 C240.804845,338.371084 240.463051,336.359386 240.463051,334.113281 C240.463051,332.023426 240.702307,329.967783 241.180825,327.946288 C241.659343,325.924794 242.347813,324.005868 243.246255,322.189452 C244.144697,320.373037 245.253084,318.693366 246.57145,317.150389 C247.889816,315.607413 249.403473,314.279301 251.112466,313.166014 C252.821459,312.052727 254.701323,311.17383 256.752115,310.529295 C258.802906,309.884761 261.019681,309.562498 263.402505,309.562498 C264.7697,309.562498 266.048984,309.684568 267.240396,309.928709 C268.431808,310.172851 269.496251,310.465817 270.433756,310.807616 C271.37126,311.149414 272.162268,311.525387 272.806803,311.935545 C273.451337,312.345704 273.890786,312.658201 274.125162,312.873045 C274.359538,313.08789 274.515787,313.292966 274.593912,313.48828 C274.672038,313.683593 274.7111,313.927732 274.7111,314.220702 L274.7111,314.220702 Z M305.502116,311.056639 C305.502116,311.154296 305.497234,311.305662 305.487468,311.510741 C305.477702,311.71582 305.448406,311.935544 305.399577,312.16992 C305.350749,312.404297 305.292156,312.648435 305.223796,312.902342 C305.155436,313.15625 305.062664,313.38574 304.945476,313.590819 C304.828288,313.795898 304.686688,313.961912 304.520671,314.088866 C304.354655,314.21582 304.173992,314.279296 303.978679,314.279296 L289.183756,314.279296 L286.781413,326.173827 L299.525554,326.173827 C299.75993,326.173827 299.935709,326.251951 300.052898,326.408202 C300.170086,326.564453 300.228679,326.798826 300.228679,327.111327 C300.228679,327.208984 300.21403,327.36035 300.184733,327.565429 C300.155436,327.770508 300.121257,327.995115 300.082194,328.239257 C300.043132,328.483399 299.984539,328.722654 299.906413,328.95703 C299.828288,329.191407 299.735515,329.401366 299.628093,329.586913 C299.52067,329.772461 299.388836,329.92871 299.232585,330.055663 C299.076334,330.182617 298.900555,330.246093 298.705241,330.246093 L285.990397,330.246093 L283.236491,343.810547 L298.324382,343.810547 C298.519695,343.810547 298.680827,343.888671 298.80778,344.044922 C298.934734,344.201173 298.99821,344.445311 298.99821,344.777344 C298.99821,344.894532 298.988444,345.060546 298.968913,345.275391 C298.949382,345.490235 298.915202,345.714842 298.866374,345.949219 C298.817546,346.183595 298.758952,346.42285 298.690593,346.666992 C298.622233,346.911134 298.529461,347.135741 298.412272,347.34082 C298.295084,347.545899 298.153484,347.707031 297.987468,347.824219 C297.821451,347.941407 297.640789,348 297.445476,348 L279.222819,348 C279.007974,348 278.798015,347.965821 278.592936,347.897461 C278.387857,347.829101 278.212077,347.711915 278.065592,347.545898 C277.919107,347.379882 277.816569,347.16504 277.757975,346.901367 C277.699381,346.637694 277.718912,346.320314 277.816569,345.949219 L284.584147,312.140624 C284.720866,311.378901 285.023598,310.84668 285.49235,310.543944 C285.961102,310.241208 286.420082,310.089842 286.869303,310.089842 L304.828288,310.089842 C305.277509,310.089842 305.502116,310.412105 305.502116,311.056639 L305.502116,311.056639 Z M330.785321,312.960936 C330.785321,313.117187 330.775555,313.297849 330.756024,313.502928 C330.736492,313.708007 330.702313,313.922849 330.653485,314.14746 C330.604656,314.37207 330.546063,314.606443 330.477703,314.850585 C330.409344,315.094726 330.326337,315.309568 330.22868,315.495116 C330.131023,315.680664 330.01872,315.832029 329.891766,315.949217 C329.764812,316.066406 329.623212,316.124999 329.466961,316.124999 C329.252116,316.124999 328.954268,315.998047 328.573406,315.744139 C328.192545,315.490232 327.704269,315.22168 327.108563,314.938475 C326.512857,314.655271 325.804856,314.386719 324.984539,314.132811 C324.164222,313.878904 323.216966,313.751952 322.142742,313.751952 C320.95133,313.751952 319.906418,313.932614 319.007976,314.293944 C318.109534,314.655274 317.357589,315.14355 316.752117,315.758788 C316.146645,316.374025 315.692548,317.07226 315.389812,317.853514 C315.087076,318.634768 314.935711,319.445307 314.935711,320.285155 C314.935711,321.144534 315.126138,321.89648 315.507,322.541015 C315.887861,323.185549 316.385903,323.771481 317.00114,324.298827 C317.616378,324.826174 318.319496,325.324216 319.110515,325.792968 C319.901535,326.26172 320.707191,326.740231 321.527508,327.228515 C322.347824,327.716799 323.158363,328.239254 323.959148,328.795898 C324.759934,329.352541 325.467935,329.997066 326.083172,330.729492 C326.698409,331.461917 327.196451,332.301752 327.577313,333.249023 C327.958174,334.196293 328.148602,335.294915 328.148602,336.544921 C328.148602,338.205086 327.806808,339.762688 327.123211,341.217773 C326.439614,342.672859 325.467944,343.942377 324.208172,345.026367 C322.9484,346.110357 321.42986,346.969723 319.652508,347.604492 C317.875155,348.239261 315.892753,348.556641 313.705242,348.556641 C312.51383,348.556641 311.405442,348.454103 310.380046,348.249023 C309.354651,348.043944 308.431808,347.790041 307.611492,347.487305 C306.791175,347.184569 306.097822,346.872072 305.531413,346.549805 C304.965004,346.227537 304.554852,345.939454 304.300945,345.685547 C304.047037,345.431639 303.920085,345.060549 303.920085,344.572265 C303.920085,344.455077 303.934733,344.289063 303.96403,344.074219 C303.993328,343.859374 304.037272,343.625001 304.095866,343.371094 C304.15446,343.117186 304.217936,342.868165 304.286296,342.624023 C304.354656,342.379881 304.442546,342.155274 304.549968,341.950195 C304.65739,341.745116 304.774577,341.579102 304.901531,341.452148 C305.028484,341.325194 305.17985,341.261718 305.355632,341.261718 C305.668134,341.261718 306.058755,341.417967 306.527507,341.730469 C306.99626,342.04297 307.577308,342.379881 308.270671,342.741211 C308.964034,343.102541 309.789221,343.439451 310.746257,343.751953 C311.703293,344.064455 312.826329,344.220703 314.115398,344.220703 C315.482592,344.220703 316.703283,344.030275 317.777508,343.649414 C318.851732,343.268553 319.755043,342.75098 320.487469,342.096679 C321.219894,341.442379 321.781412,340.675785 322.172039,339.796875 C322.562666,338.917964 322.757977,337.980473 322.757977,336.984375 C322.757977,336.105464 322.572432,335.33887 322.201336,334.68457 C321.83024,334.03027 321.341964,333.439455 320.736492,332.912109 C320.13102,332.384762 319.432785,331.896486 318.641765,331.447265 C317.850746,330.998044 317.049973,330.529299 316.239422,330.041015 C315.428871,329.552731 314.63298,329.030275 313.851726,328.473632 C313.070472,327.916989 312.37712,327.272464 311.771648,326.540038 C311.166176,325.807613 310.673017,324.967777 310.292156,324.020507 C309.911294,323.073236 309.720867,321.964849 309.720867,320.695311 C309.720867,319.152335 310.023598,317.707037 310.62907,316.359374 C311.234542,315.011711 312.093908,313.830082 313.207195,312.814452 C314.320482,311.798822 315.668125,310.998048 317.250164,310.412108 C318.832203,309.826167 320.599764,309.533202 322.552898,309.533202 C323.490403,309.533202 324.383949,309.611326 325.233563,309.767577 C326.083176,309.923827 326.84977,310.114255 327.533367,310.338866 C328.216965,310.563476 328.802896,310.807614 329.29118,311.071288 C329.779464,311.334961 330.111492,311.554685 330.287274,311.730467 C330.463056,311.906249 330.590008,312.086912 330.668133,312.27246 C330.746258,312.458007 330.785321,312.687497 330.785321,312.960936 L330.785321,312.960936 Z" id="SAUSAGES" fill="#4A4A4A"></path>
        <path d="M206.509925,276.826171 C205.084136,274.833973 204.029459,273.032234 203.345862,271.420897 C202.662265,269.809561 202.320471,268.154304 202.320471,266.455077 C202.320471,263.349592 203.096831,260.952155 204.649573,259.262694 C206.202315,257.573232 208.336083,256.728514 211.050941,256.728514 C213.570484,256.728514 215.587066,257.524404 217.100745,259.116209 C218.614425,260.708014 219.371253,262.705065 219.371253,265.10742 C219.371253,266.884773 218.965984,268.413078 218.155433,269.692382 C217.344882,270.971685 216.177901,272.246086 214.654456,273.515624 L210.787269,276.943358 L220.894691,290.566406 L221.070472,290.537109 C221.812663,289.287103 222.398595,287.836922 222.828285,286.186523 C223.257974,284.536124 223.472816,282.773446 223.472816,280.898437 L226.783363,280.898437 C226.783363,283.398449 226.461101,285.698231 225.816566,287.797851 C225.172032,289.897471 224.244306,291.787101 223.033363,293.466797 L227.896644,300 L223.590004,300 L220.748207,296.132812 C219.302887,297.578132 217.725754,298.68652 216.016761,299.458008 C214.307768,300.229496 212.496263,300.615234 210.582191,300.615234 C206.988422,300.615234 204.141771,299.56544 202.042151,297.46582 C199.942531,295.3662 198.892737,292.578142 198.892737,289.101562 C198.892737,286.738269 199.522613,284.614267 200.782385,282.729492 C202.042157,280.844716 203.882959,278.935556 206.304847,277.001952 L206.509925,276.826171 Z M210.582191,297.568359 C212.086104,297.568359 213.555816,297.231449 214.99137,296.557617 C216.426924,295.883786 217.730622,294.921881 218.902503,293.671875 L208.502112,279.521484 L208.23844,279.199218 L207.183753,280.136718 C205.308743,281.953133 204.053873,283.588859 203.419104,285.043945 C202.784335,286.49903 202.466956,287.851556 202.466956,289.101562 C202.466956,291.523449 203.160308,293.540031 204.547034,295.151367 C205.93376,296.762703 207.945458,297.568359 210.582191,297.568359 L210.582191,297.568359 Z M205.953284,266.396483 C205.953284,267.646489 206.212071,268.95507 206.729651,270.322264 C207.247232,271.689459 208.033357,273.115226 209.08805,274.599608 L213.3068,270.908202 C214.283367,270.048823 214.97672,269.140629 215.386878,268.183592 C215.797037,267.226556 216.002113,266.201176 216.002113,265.10742 C216.002113,263.603507 215.557781,262.348636 214.669105,261.342772 C213.780428,260.336907 212.574386,259.833983 211.050941,259.833983 C209.410307,259.833983 208.150554,260.458977 207.271644,261.708983 C206.392733,262.958989 205.953284,264.521474 205.953284,266.396483 L205.953284,266.396483 Z" id="&amp;-copy" fill="#4A4A4A"></path>
        <g id="Group" transform="translate(131.381995, 374.000000)" fill="#4A4A4A">
            <g id="Group-2">
                <g id="Logo-Copy">
                    <path d="M114.012078,6.3714463 C115.303989,6.05961146 116.536044,5.72873731 117.709299,5.38016147 C120.516859,4.54603065 122.639795,3.70601105 124.150219,2.9385882 C124.552004,2.73444748 124.826918,2.57763589 124.984275,2.47733411 C124.927772,2.51335035 124.771087,2.62454469 124.523484,2.81960892 C130.208036,-1.65874698 138.460976,-0.698981648 142.956942,4.9633048 C147.452908,10.6255912 146.489369,18.8462061 140.804817,23.324562 C137.936981,25.5838765 132.875637,28.1554668 125.211077,30.4326204 C111.695977,34.4479796 93.4253499,36.464415 69.6542839,35.6283256 C50.0071035,34.9372838 34.989108,33.2209685 23.9022808,30.7329446 C13.6741116,28.4376144 7.57632961,25.698059 4.32347249,22.7694166 C-1.0532754,17.9285733 -1.47228072,9.66265135 3.38759791,4.30696323 C8.24747654,-1.04872488 16.545902,-1.46608903 21.9226498,3.37475432 C21.4377073,2.93814637 21.0304716,2.63281034 20.7304662,2.4439632 C20.6940923,2.42106662 20.6952426,2.42173145 20.7370521,2.44393847 C20.8593688,2.50890676 21.0290061,2.59176141 21.2488299,2.69052179 C22.5956529,3.29561008 24.596308,3.97365075 27.3309466,4.67023403 L29.5800134,18.0310238 L32.2395144,5.77076733 C36.1440873,6.54462071 40.6680804,7.22932207 45.8470907,7.80552547 L48.0453861,20.8647029 L50.7704947,8.30199651 C54.7264196,8.66216425 59.0167844,8.96487423 63.6542597,9.2032403 L65.617273,20.8647029 L68.1025557,9.40758997 C68.9185922,9.44078066 69.7445445,9.47209323 70.5804728,9.50149497 C76.3531598,9.70453519 81.7044265,9.72373771 86.650412,9.57958161 L88.5500745,20.8647029 L91.0361209,9.4040695 C98.1468246,9.03915382 104.341776,8.3148077 109.676801,7.3018669 L111.482876,18.0310238 L114.012078,6.3714463 Z" id="Shape"></path>
                </g>
                <path d="M71.3551995,133.130177 C69.179731,130.600747 69.5752707,129.926232 69.5752707,128.577203 C69.5752707,127.228173 71.1574296,123.686971 71.1574296,109.859419 L71.1574296,92.9965506 C71.1574296,92.9965506 70.8415176,68.9070247 69.4756132,67.7679814 C67.8420079,66.4056993 65.6198734,65.5100753 64.2354843,63.3179024 C62.8510953,61.1257295 62.4555556,60.497901 62.4555556,56.4227078 L64.8287939,41.2275449 L69.7730406,57.2472698 L73.1436262,41.2275449 L76.5331441,57.2472698 L81.4773907,41.2275449 L83.8506291,56.4227078 C83.8506291,60.497901 83.4550894,61.1257295 82.0707003,63.3179024 C80.6863112,65.5100753 78.4641767,66.4056993 76.8305714,67.7679814 C75.4646671,68.9070247 75.148755,92.9965506 75.148755,92.9965506 L75.148755,109.859419 C75.148755,123.686971 76.7309139,127.228173 76.7309139,128.577203 C76.7309139,129.926232 77.1264537,130.600747 74.9509852,133.130177 C73.5809846,134.723085 73.2272362,134.584598 73.1530923,134.263683 C73.0789484,134.584598 72.7252001,134.723085 71.3551995,133.130177 Z" id="Combined-Shape"></path>
            </g>
        </g>
        <rect id="Rectangle-4" fill="#52BDF6" x="113.381995" y="32" width="183" height="5"></rect>
        <rect id="Rectangle-4-Copy" fill="#52BDF6" x="113.381995" y="24" width="183" height="5"></rect>
    </g>
</svg>
