<?xml version="1.0" encoding="utf-8"?>
<!-- Generator: Adobe Illustrator 16.0.0, SVG Export Plug-In . SVG Version: 6.00 Build 0)  -->
<!DOCTYPE svg PUBLIC "-//W3C//DTD SVG 1.1//EN" "http://www.w3.org/Graphics/SVG/1.1/DTD/svg11.dtd">
<svg version="1.1" id="Layer_1" xmlns="http://www.w3.org/2000/svg" xmlns:xlink="http://www.w3.org/1999/xlink" x="0px" y="0px"
	 width="121.046px" height="121.046px" viewBox="0 0 121.046 121.046" enable-background="new 0 0 121.046 121.046"
	 xml:space="preserve">
<g>
	<path fill="#4E4E4E" d="M121.046,113.084c0,3.915-3.203,7.117-7.117,7.117H7.117C3.203,120.202,0,117,0,113.084V6.272
		c0-3.914,3.203-7.116,7.117-7.116h106.812c3.914,0,7.117,3.202,7.117,7.116V113.084z"/>
	<g>
		<path d="M95.362,40.043c-2.475,1.103-5.133,1.842-7.92,2.173c2.845-1.706,5.031-4.407,6.061-7.63
			c-2.664,1.58-5.617,2.731-8.757,3.349c-2.519-2.682-6.104-4.357-10.067-4.357c-7.619,0-13.8,6.178-13.8,13.795
			c0,1.08,0.123,2.132,0.36,3.145c-11.465-0.577-21.631-6.07-28.433-14.415c-1.186,2.037-1.87,4.407-1.87,6.938
			c0,4.783,2.438,9.004,6.141,11.481c-2.263-0.07-4.392-0.693-6.252-1.727c0,0.057,0,0.115,0,0.174
			c0,6.682,4.756,12.257,11.066,13.528c-1.159,0.314-2.375,0.484-3.633,0.484c-0.891,0-1.756-0.088-2.598-0.253
			c1.754,5.482,6.852,9.471,12.887,9.584c-4.723,3.695-10.666,5.903-17.133,5.903c-1.111,0-2.211-0.066-3.291-0.189
			c6.107,3.912,13.359,6.194,21.146,6.194c25.373,0,39.249-21.018,39.249-39.247c0-0.599-0.013-1.196-0.038-1.785
			C91.175,45.245,93.513,42.813,95.362,40.043z"/>
	</g>
	<g>
		<path fill="#FFFFFF" d="M94.142,38.823c-2.474,1.102-5.132,1.841-7.92,2.173c2.846-1.706,5.031-4.407,6.061-7.63
			c-2.664,1.579-5.616,2.731-8.756,3.349c-2.52-2.682-6.105-4.357-10.068-4.357c-7.619,0-13.799,6.178-13.799,13.795
			c0,1.08,0.123,2.132,0.359,3.145c-11.465-0.577-21.631-6.071-28.432-14.415c-1.186,2.037-1.871,4.407-1.871,6.938
			c0,4.784,2.438,9.005,6.141,11.481c-2.262-0.069-4.391-0.693-6.251-1.727c0,0.057,0,0.116,0,0.174
			c0,6.682,4.756,12.258,11.066,13.527c-1.159,0.315-2.376,0.486-3.634,0.486c-0.891,0-1.755-0.088-2.598-0.253
			c1.754,5.483,6.853,9.47,12.888,9.583c-4.724,3.696-10.667,5.904-17.133,5.904c-1.112,0-2.211-0.066-3.292-0.191
			C33.011,84.718,40.263,87,48.05,87C73.423,87,87.3,65.982,87.3,47.753c0-0.598-0.014-1.196-0.039-1.785
			C89.954,44.025,92.292,41.593,94.142,38.823z"/>
	</g>
</g>
</svg>
