<?xml version="1.0" encoding="UTF-8" standalone="no"?>
<!-- Created with Inkscape (http://www.inkscape.org/) -->
<svg id="svg2" xmlns:rdf="http://www.w3.org/1999/02/22-rdf-syntax-ns#" xmlns="http://www.w3.org/2000/svg" xml:space="preserve" height="277.14" viewBox="0 0 1209.4548 277.13876" width="1209.5" version="1.1" xmlns:cc="http://creativecommons.org/ns#" xmlns:dc="http://purl.org/dc/elements/1.1/"><metadata id="metadata8"><rdf:RDF><cc:Work rdf:about=""><dc:format>image/svg+xml</dc:format><dc:type rdf:resource="http://purl.org/dc/dcmitype/StillImage"/><dc:title/></cc:Work></rdf:RDF></metadata><defs id="defs6"><clipPath id="clipPath30" clipPathUnits="userSpaceOnUse"><path id="path32" d="m0 292.45h1059.3v-292.45h-1059.3v292.45z"/></clipPath></defs><g id="g10" transform="matrix(1.25 0 0 -1.25 -57.319 318.85)"><path id="path12" d="m284.44 44.798h53.018v210.28h-53.018v-210.28z" fill="#e73b2b"/><g id="g14" transform="translate(1013.4 255.08)"><path id="path16" d="m0 0h-159.05v-38.846-14.172h53.017v-157.26h53.015v157.26h53.016l-0.001 53.02z" fill="#e73b2b"/></g><g id="g18" transform="translate(157.07 150.02)"><path id="path20" d="m0 0-51.565 105.07h-59.645l111.13-210.39 114.2 210.39h-59.645l-54.475-105.07z" fill="#e73b2b"/></g><g id="g22" transform="translate(483.26 149.94)"><path id="path24" d="m0 0-119.29 105.14v-210.29h53.072l-0.054 93.465 119.29-104.89v221.71h-52.982l-0.036-105.13z" fill="#e73b2b"/></g><g id="g26"><g id="g28" clip-path="url(#clipPath30)"><g id="g34" transform="translate(706.21 123.24)"><path id="path36" d="m0 0c-8.204-13.795-22.596-23.675-39.758-25.368-28.672-2.828-54.298 18.197-57.127 46.868-2.828 28.671 18.196 54.298 46.868 57.127 17.142 1.691 33.168-5.167 43.909-17.066l39.001 35.777c-21.596 23.728-53.719 37.323-88.103 33.931-57.791-5.702-100.02-57.171-94.317-114.96 5.701-57.791 57.172-100.02 114.96-94.316 34.39 3.393 63.241 23.008 79.783 50.506l-45.216 27.492z" fill="#e73b2b"/></g><path id="path38" d="m774.85 44.798h53.018v210.28h-53.018v-210.28z" fill="#e73b2b"/></g></g></g></svg>
