<?xml version="1.0" encoding="utf-8"?>
<!-- Generator: Adobe Illustrator 16.0.0, SVG Export Plug-In . SVG Version: 6.00 Build 0)  -->
<!DOCTYPE svg PUBLIC "-//W3C//DTD SVG 1.1//EN" "http://www.w3.org/Graphics/SVG/1.1/DTD/svg11.dtd">
<svg version="1.1" id="Layer_1" xmlns="http://www.w3.org/2000/svg" xmlns:xlink="http://www.w3.org/1999/xlink" x="0px" y="0px"
	 width="121.046px" height="121.046px" viewBox="0 0 121.046 121.046" enable-background="new 0 0 121.046 121.046"
	 xml:space="preserve">
<path fill="#4E4E4E" d="M121.046,113.929c0,3.914-3.202,7.117-7.117,7.117H7.117c-3.915,0-7.117-3.203-7.117-7.117V7.116
	C0,3.202,3.202,0,7.117,0h106.812c3.915,0,7.117,3.202,7.117,7.116V113.929z"/>
<g>
	<path fill="#FFFFFF" stroke="#000000" stroke-miterlimit="10" d="M110.821,55.696c0,3.387,0,6.774,0,10.162
		c-0.075,0.399-0.182,0.796-0.22,1.199c-0.188,1.979-0.258,3.974-0.552,5.936c-0.793,5.291-3.331,7.725-8.491,8.043
		c-4.347,0.269-8.704,0.475-13.058,0.503c-6.77,0.044-13.542-0.012-20.31-0.175c-3.414-0.082-6.843-0.337-10.226-0.804
		c-2.66-0.367-4.494-2.058-5.344-4.666c-0.314-0.962-0.64-1.938-0.779-2.934c-0.857-6.142-0.891-12.323-0.505-18.492
		c0.186-2.972,0.617-5.973,1.354-8.854c0.766-2.995,3.122-4.562,6.141-4.918c2.39-0.282,4.807-0.333,7.211-0.5
		c0.956-0.066,1.909-0.167,2.864-0.251c8.044,0,16.089,0,24.133,0c0.402,0.071,0.802,0.18,1.207,0.206
		c2.993,0.189,6,0.243,8.977,0.575c2.75,0.307,4.879,1.781,5.824,4.452c0.613,1.732,0.938,3.582,1.242,5.403
		C110.57,52.27,110.651,53.99,110.821,55.696z M81.642,46.989c0,8.937,0,17.752,0,26.634c1.199,0,2.322,0,3.481,0
		c0.055-0.526,0.104-1.005,0.162-1.565c0.696,0.516,1.257,1.031,1.904,1.392c2.174,1.21,4.305,0.261,4.876-2.147
		c0.136-0.571,0.226-1.167,0.236-1.753c0.052-3.043,0.115-6.087,0.082-9.129c-0.015-1.429-0.107-2.882-0.392-4.277
		c-0.541-2.665-2.804-3.547-5.112-2.083c-0.543,0.345-1.035,0.771-1.734,1.297c0-2.934,0-5.625,0-8.368
		C83.946,46.989,82.856,46.989,81.642,46.989z M74.858,53.761c-0.028,0.389-0.063,0.637-0.063,0.885
		c-0.004,4.317-0.003,8.634-0.004,12.95c0,0.339,0.133,0.803-0.037,0.993c-0.641,0.721-1.327,1.821-2.095,1.907
		c-1.2,0.134-0.716-1.177-0.723-1.864c-0.047-4.485-0.024-8.972-0.024-13.458c0-0.449,0-0.898,0-1.372c-1.376,0-2.576,0-3.896,0
		c0,1.02-0.006,1.945,0.001,2.87c0.035,4.823-0.028,9.649,0.15,14.466c0.098,2.645,2.387,3.652,4.629,2.219
		c0.658-0.42,1.232-0.97,1.923-1.522c0.055,0.653,0.1,1.186,0.147,1.759c1.257,0,2.454,0,3.62,0c0-6.67,0-13.243,0-19.833
		C77.241,53.761,76.111,53.761,74.858,53.761z M105.708,64.327c0-1.902,0.108-3.641-0.04-5.356
		c-0.092-1.062-0.407-2.183-0.918-3.115c-1.108-2.021-3.473-2.868-5.811-2.294c-2.414,0.593-3.994,2.413-4.099,5.151
		c-0.128,3.332-0.162,6.679,0.003,10.007c0.178,3.592,3.08,5.766,6.552,5.165c3.205-0.554,5.047-3.727,4.143-7.156
		c-1.164,0-2.332,0-3.656,0c0,0.77,0.039,1.478-0.01,2.18c-0.065,0.942-0.514,1.654-1.533,1.696
		c-0.941,0.038-1.577-0.567-1.635-1.445c-0.104-1.577-0.029-3.167-0.029-4.832C101.044,64.327,103.314,64.327,105.708,64.327z
		 M64.339,73.619c0-7.669,0-15.177,0-22.825c1.484,0,2.856,0,4.232,0c0-1.351,0-2.557,0-3.738c-4.194,0-8.307,0-12.409,0
		c0,1.293,0,2.46,0,3.799c1.403,0,2.725,0,4.141,0c0,7.682,0,15.192,0,22.763C61.649,73.619,62.892,73.619,64.339,73.619z"/>
	<path fill="#FFFFFF" stroke="#000000" stroke-miterlimit="10" d="M48.062,53.532c0,6.735,0,13.362,0,20.074
		c-1.217,0-2.38,0-3.664,0c-0.052-0.55-0.105-1.108-0.171-1.798c-0.59,0.496-1.074,0.951-1.604,1.341
		c-2.369,1.741-4.828,0.763-4.954-2.137c-0.186-4.262-0.107-8.536-0.136-12.805c-0.01-1.553-0.001-3.106-0.001-4.704
		c1.35,0,2.521,0,3.833,0c0.022,0.482,0.06,0.93,0.061,1.376c0.004,4.778-0.01,9.557,0.023,14.335
		c0.003,0.441,0.289,0.881,0.443,1.322c0.483-0.185,1.15-0.232,1.409-0.583c0.465-0.628,0.948-1.433,0.963-2.173
		c0.089-4.269,0.043-8.541,0.043-12.812c0-0.453,0-0.907,0-1.438C45.607,53.532,46.768,53.532,48.062,53.532z"/>
	<path fill="#FFFFFF" stroke="#000000" stroke-miterlimit="10" d="M10.92,46.766c1.271,0,2.447-0.061,3.608,0.043
		c0.292,0.026,0.678,0.541,0.779,0.898c0.825,2.922,1.593,5.861,2.623,8.849c0.129-0.401,0.275-0.797,0.384-1.204
		c0.687-2.569,1.393-5.134,2.029-7.715c0.164-0.664,0.436-0.915,1.111-0.886c1.05,0.044,2.104,0.012,3.326,0.012
		c-0.144,0.559-0.237,0.993-0.368,1.415c-1.354,4.352-2.739,8.694-4.053,13.057c-0.286,0.951-0.441,1.974-0.46,2.967
		c-0.058,3.116-0.021,6.234-0.021,9.419c-1.379,0-2.629,0-4.064,0c0-1.268-0.081-2.522,0.015-3.765
		c0.372-4.839-0.434-9.472-2.113-14.011c-0.979-2.648-1.715-5.388-2.555-8.087C11.075,47.484,11.024,47.201,10.92,46.766z"/>
	<path fill="#FFFFFF" stroke="#000000" stroke-miterlimit="10" d="M34.917,63.586c-0.101,2.047-0.095,3.996-0.315,5.92
		c-0.309,2.697-2.407,4.478-5.094,4.52c-2.694,0.043-5.088-1.649-5.25-4.311c-0.246-4.03-0.258-8.103,0.029-12.128
		c0.201-2.814,2.362-4.271,5.241-4.218c2.738,0.051,4.673,1.632,5.042,4.381C34.832,59.709,34.814,61.706,34.917,63.586z
		 M27.798,63.583c0,1.689-0.04,3.381,0.012,5.069c0.047,1.524,1.126,2.463,2.115,1.804c0.533-0.355,1.014-1.204,1.034-1.846
		c0.104-3.246,0.073-6.498,0.038-9.748c-0.014-1.326-0.632-2.014-1.62-2.011c-0.981,0.003-1.546,0.697-1.573,2.042
		C27.772,60.456,27.796,62.019,27.798,63.583z"/>
	<path fill="#FFFFFF" stroke="#000000" stroke-miterlimit="10" d="M85.207,63.637c0-1.688-0.009-3.376,0.003-5.063
		c0.008-1.056,0.759-1.813,1.813-1.806c1.022,0.007,1.43,0.7,1.438,1.579c0.031,3.543,0.035,7.087-0.012,10.63
		c-0.012,0.913-0.439,1.668-1.534,1.622c-1.082-0.045-1.702-0.76-1.706-1.898C85.202,67.013,85.207,65.325,85.207,63.637z"/>
	<path fill="#FFFFFF" stroke="#000000" stroke-miterlimit="10" d="M98.616,61.22c0-1.02-0.028-1.941,0.008-2.861
		c0.038-0.982,0.536-1.566,1.57-1.601c1.058-0.035,1.562,0.59,1.644,1.532c0.081,0.95,0.018,1.913,0.018,2.93
		C100.754,61.22,99.761,61.22,98.616,61.22z"/>
</g>
</svg>
